<?xml version="1.0" encoding="UTF-8"?>
<svg id="_레이어_2" data-name="레이어 2" xmlns="http://www.w3.org/2000/svg" viewBox="0 0 926.1 387.72">
  <defs>
    <style>
      .cls-1 {
        fill: #fff;
      }

      .cls-2 {
        fill: #f7941c;
      }

      .cls-3 {
        fill: #1a4298;
      }

      .cls-4 {
        fill: #ed1b23;
      }
    </style>
  </defs>
  <g id="Layer_1" data-name="Layer 1">
    <g>
      <path class="cls-2" d="m346.5,73.57v165.1h-74.58V73.57h-50.03V0h174.65v73.57h-50.03Z"/>
      <path class="cls-3" d="m498.87,61.27v26.47h62.13v50.89h-62.13v98.62h-74.53V0h162.51v61.27h-87.99Z"/>
      <path class="cls-4" d="m195.81,377.32C91.62,377.32,0,292.85,0,188.57S91.62,0,195.81,0v76.23c-62.02,0-119.56,50.28-119.56,112.34s57.54,112.51,119.56,112.51v76.25Z"/>
      <path class="cls-1" d="m296.01,361.4l-15.27-35.29h-8.36c-1.34-4.42-3.47-8.2-6.5-11.33-4.84-4.91-11.02-7.42-18.24-7.42-8.67-.17-15.89,3.29-21.33,9.61-5.35,6.32-8.04,14.65-8.04,24.42s2.74,18.43,8.11,24.77c5.43,6.41,12.69,9.76,21.42,9.58,7.46.18,13.56-2.52,18.08-7.42,3.28-3.59,5.63-8.33,6.91-13.85l.3-1.56h-9.22l-.25.79c-1.11,3.94-2.72,7.26-5.03,9.61-2.92,3.14-6.36,4.56-10.79,4.56-6.07,0-10.78-2.35-14.68-7.23-3.66-4.92-5.71-11.2-5.71-19.24s1.94-14.17,5.67-18.91c3.77-4.87,8.43-7.08,14.55-7.08,4.66,0,8.29,1.42,11.13,4.4,1.96,1.89,3.62,4.91,4.87,8.82l.32.82h8.89l18.34,42.2-2.58,5.83c-.43.97-1.02,1.74-1.63,2.05-.53.48-1.35.8-2.53.8h-4.73v7.41h7.56c1.24-.33,2.43-.64,3.73-1.24,1.38-.82,2.42-1.76,3.26-2.71,1.06-1.25,1.76-2.36,2.61-3.92l-1.24-.5,1.24.5,24.02-53.72h-9.44l-15.44,35.29Zm66.96-29.62c-4.17-4.91-9.79-7.26-16.24-7.26-3.69,0-7.09.8-10.06,2.35-2,1.13-3.62,2.56-5.24,4.28v-22.36h-8.65v65.39h8.65v-4.91c1.52,1.59,3.23,3,5.24,3.94,2.97,1.89,6.37,2.69,10.06,2.69,6.46,0,11.96-2.53,16.24-7.41,4.08-4.75,6.11-11.04,6.11-18.3s-2.03-13.52-6.11-18.43h0Zm-6.05,31.97l-.88-.76c-2.85,3.16-6.05,4.87-10.31,4.87s-7.74-1.59-10.42-4.87c-2.53-3.18-3.91-7.42-3.91-12.78s1.38-9.58,3.91-12.9c2.68-3.18,5.97-4.74,10.42-4.74s7.55,1.56,10.31,4.88c2.49,3.32,3.86,7.39,3.97,12.76-.11,5.36-1.48,9.47-3.97,12.63l.88.91Zm38.67-39.39c-7.26,0-13.24,2.52-17.64,7.26-4.2,4.91-6.34,11.06-6.34,18.42s2.14,13.55,6.45,18.27c4.45,4.91,10.43,7.6,17.53,7.42,6.11,0,11.26-1.55,15.18-4.73,3.18-2.5,5.45-5.99,7.01-10.06l.55-1.59h-9.91l-.32.91c-.76,2.24-2.07,3.99-3.97,5.38-2.11,1.59-4.92,2.21-8.54,2.21-3.95,0-7.26-1.42-10.12-4.27-2.76-2.96-4.23-6.58-4.56-10.69h38.7v-2.04c0-8.33-2.23-14.82-6.85-19.53-4.42-4.56-10.23-6.97-17.17-6.97Zm-14.35,20.97c.46-3.94,1.8-6.91,4.09-9.29,2.68-2.53,6-3.8,10.26-3.8s7.46,1.44,10.15,3.94c2.53,2.38,3.84,5.53,4.26,9.15h-28.75Zm64.75-20.46c-2.35.46-4.24,1.08-5.79,1.73-1.94.77-3.68,2.02-5.16,3.29-.71.62-1.24,1.27-1.8,1.73v-5.5h-8.75v48.07h8.75v-25.22c0-3.63.69-6.63,2.03-8.68,1.24-2.21,3.15-3.92,5.81-5.49,1.01-.67,2.6-1.12,4.84-1.29,1.56-.14,3.12-.3,4.78-.3h1.24v-8.85h-1.24c-1.33,0-2.92.17-4.71.51Zm23.05-8.2h20.97v57.51h8.89v-57.51h19.56v-7.88h-49.41v7.88Zm73.39,7.68c-7.23,0-13.17,2.52-17.6,7.26-4.26,4.91-6.29,11.06-6.29,18.42s2.09,13.55,6.36,18.27c4.49,4.91,10.48,7.6,17.66,7.42,6.08,0,11.16-1.55,15.21-4.73,3.04-2.5,5.25-5.99,6.94-10.06l.52-1.59h-9.95l-.28.91c-.8,2.24-1.98,3.99-3.87,5.38-2.14,1.59-5.05,2.21-8.71,2.21-3.98,0-7.23-1.42-10.05-4.27-2.74-2.96-4.16-6.58-4.58-10.69h38.67v-2.04c0-8.33-2.25-14.82-6.81-19.53-4.38-4.56-10.28-6.97-17.24-6.97Zm-14.28,20.97c.46-3.94,1.8-6.91,4.08-9.29,2.67-2.53,6.01-3.8,10.2-3.8s7.5,1.44,10.27,3.94c2.48,2.38,3.79,5.53,4.2,9.15h-28.75Zm78.44,13.56c-.79,2.86-2.28,4.86-4.49,6.45-2.52,1.73-5.35,2.52-8.9,2.52-4.46,0-8.06-1.42-10.86-4.87-2.9-3.18-4.34-7.57-4.34-12.95s1.44-9.41,4.34-12.89c2.76-3.32,6.4-4.91,10.86-4.91,4.11,0,7.29,1.13,9.59,3.32,1.91,1.59,3.18,3.65,3.91,6.15l.18.82h9.54l-.22-1.44c-.86-4.09-3.27-8.04-7.08-11.19-4.42-3.63-9.79-5.53-15.92-5.53-7.34,0-13.45,2.52-17.88,7.26-4.34,5.07-6.52,11.2-6.52,18.42s2.19,13.55,6.52,18.46c4.44,4.88,10.54,7.41,17.88,7.41,6.08,0,11.25-1.73,15.54-5.04,3.54-3.01,6.08-6.61,7.41-11.2l.44-1.56h-9.7l-.29.77Zm40.57-34.36c-.72,0-1.17-.17-1.89-.17-3.69,0-7.15.8-10.23,2.41-1.98.91-3.87,2.35-5.6,4.06v-22.03h-8.73v65.39h8.73v-28.54c0-2.97,1.27-5.69,4.04-8.5,2.97-3.01,6.36-4.26,10.31-4.26,3.69,0,6.45.94,8.35,2.67,1.95,2.04,2.97,4.73,2.97,8.85v29.78h8.82v-32.02c.11-4.56-1.48-8.65-4.46-11.93-3.07-3.63-7.33-5.53-12.3-5.71Zm44.44,49.66h8.75v-28.71h27.33v-7.88h-27.33v-20.92h30.06v-7.88h-38.81v65.39Zm62.79-49.31c-2.38.46-4.28,1.08-5.76,1.73-1.95.77-3.77,2.02-5.27,3.29-.55.62-1.2,1.27-1.76,1.73v-5.5h-8.75v48.07h8.75v-25.22c0-3.63.65-6.63,2.07-8.68,1.17-2.21,3.14-3.92,5.85-5.49.93-.67,2.58-1.12,4.75-1.29,1.6-.14,3.18-.3,4.92-.3h1.11v-8.85h-1.11c-1.45,0-3.04.17-4.81.51Zm9.7,49.31h8.79v-48.07h-8.79v48.07Zm-.55-55.63h9.9v-9.76h-9.9v9.76Zm39.39,5.8c-7.22,0-13.19,2.52-17.61,7.26-4.16,4.91-6.26,11.06-6.22,18.42-.04,7.27,2.06,13.55,6.32,18.27,4.49,4.91,10.46,7.6,17.55,7.42,6.08,0,11.24-1.55,15.3-4.73,3.04-2.5,5.25-5.99,6.95-10.06l.53-1.59h-9.83l-.35.91c-.86,2.24-2.1,3.99-3.94,5.38-2.17,1.59-5.03,2.21-8.71,2.21-3.97,0-7.22-1.42-10.05-4.27-2.72-2.96-4.15-6.58-4.56-10.69h38.6l.07-1.26v-.79c0-8.33-2.32-14.82-6.84-19.53-4.42-4.56-10.16-6.97-17.22-6.97Zm-14.29,20.97c.41-3.94,1.83-6.91,4.17-9.29,2.6-2.53,5.94-3.8,10.12-3.8s7.54,1.44,10.27,3.94c2.53,2.38,3.8,5.53,4.21,9.15h-28.78Zm69.72-20.8c-.55,0-1.24-.17-1.8-.17-3.73,0-7.1.8-10.26,2.41-2.04.91-3.84,2.35-5.67,4.06v-4.71h-8.67v48.07h8.67v-29.16c0-3,1.24-5.82,4.08-8.22,2.94-2.67,6.22-3.91,10.19-3.91s6.54.94,8.43,2.67c1.98,2.04,3.05,4.73,3.05,8.85v29.78h8.83v-32.02c0-4.56-1.48-8.65-4.38-11.93-3.18-3.63-7.5-5.53-12.48-5.71Zm58.82-15.73v22.36c-1.46-1.59-3.04-3.15-5.11-4.28-2.99-1.55-6.29-2.35-9.9-2.35-6.57,0-12.15,2.35-16.27,7.26-4.05,4.91-6.12,11.03-6.12,18.43s2.07,13.38,6.12,18.3c4.12,4.88,9.7,7.41,16.27,7.41,3.61,0,6.91-.8,9.9-2.69,2.07-.94,3.65-2.35,5.11-3.94v4.91h8.91v-65.39h-8.91Zm-3.75,54.19l.87.76-.87-.76c-2.61,3.28-6,4.87-10.43,4.87-4.2,0-7.39-1.7-10.12-4.87-2.63-3.32-3.9-7.42-3.9-12.78s1.27-9.44,3.9-12.76c2.72-3.32,5.92-4.88,10.12-4.88,4.44,0,7.82,1.56,10.43,4.74,2.6,3.32,4.02,7.37,4.02,12.9s-1.42,9.61-4.02,12.78Z"/>
    </g>
  </g>
</svg>